<?xml version="1.0" encoding="UTF-8"?>
<svg version="1.1" xmlns="http://www.w3.org/2000/svg" width="1901" height="926">
<path d="M0 0 C627.33 0 1254.66 0 1901 0 C1901 305.58 1901 611.16 1901 926 C1273.67 926 646.34 926 0 926 C0 620.42 0 314.84 0 0 Z " fill="#2C333B" transform="translate(0,0)"/>
<path d="M0 0 C2.64 0 5.28 0 8 0 C9.33838733 2.45570175 10.67086232 4.91429916 12 7.375 C12.3815625 8.07367188 12.763125 8.77234375 13.15625 9.4921875 C16 14.7734375 16 14.7734375 16 17 C16.99 17 17.98 17 19 17 C19.226875 15.865625 19.45375 14.73125 19.6875 13.5625 C20.91615727 8.5492196 23.34072787 4.38475405 26 0 C28.64 0 31.28 0 34 0 C34 10.56 34 21.12 34 32 C32.02 32 30.04 32 28 32 C27.505 22.1 27.505 22.1 27 12 C24.69 17.28 22.38 22.56 20 28 C18.35 28 16.7 28 15 28 C12.69 23.38 10.38 18.76 8 14 C7.67 19.94 7.34 25.88 7 32 C4.69 32 2.38 32 0 32 C0 21.44 0 10.88 0 0 Z " fill="#EBECEC" transform="translate(1050,458)"/>
<path d="M0 0 C3.12578143 1.6720747 5.39281175 3.7856235 7 7 C7.66808715 12.22062387 7.75242524 16.62618178 4.6875 21.0625 C1.9741294 24.02827716 0.81705054 24.7924343 -3.0859375 25.23828125 C-7.16342681 25.37048653 -9.38504472 25.37944049 -12.9375 23.1875 C-17.17315465 18.69513901 -17.48134967 15.69718201 -17.39453125 9.73828125 C-16.78187614 5.48609082 -15.1469121 3.84720619 -12 1 C-8.27533151 -0.86233425 -4.05504687 -0.57130829 0 0 Z " fill="#EEEEEF" transform="translate(953,465)"/>
<path d="M0 0 C3.5625 1.625 3.5625 1.625 6 4 C6.875 7.25 6.875 7.25 7 10 C4.69 10 2.38 10 0 10 C-0.33 9.01 -0.66 8.02 -1 7 C-3.31 7 -5.62 7 -8 7 C-8.33 8.32 -8.66 9.64 -9 11 C-8.19175781 11.31453125 -7.38351562 11.6290625 -6.55078125 11.953125 C-5.48214844 12.38109375 -4.41351562 12.8090625 -3.3125 13.25 C-1.72888672 13.87648438 -1.72888672 13.87648438 -0.11328125 14.515625 C3.06720593 16.03204298 5.45269544 17.56890459 8 20 C8.69407231 24.241553 8.48845367 26.22521141 6.1875 29.875 C2.09264222 33.85286185 -2.67746843 33.39625786 -8.10546875 33.34375 C-11 33 -11 33 -14.1875 30.875 C-16.12703807 27.79849133 -16.74839682 25.60631229 -17 22 C-14.69 22 -12.38 22 -10 22 C-9.34 23.65 -8.68 25.3 -8 27 C-3.85906302 27.20970559 -3.85906302 27.20970559 0 26 C-0.07197644 23.55545324 -0.07197644 23.55545324 -1 21 C-3.45155306 19.55656333 -3.45155306 19.55656333 -6.4375 18.75 C-7.42621094 18.43546875 -8.41492188 18.1209375 -9.43359375 17.796875 C-10.28050781 17.53390625 -11.12742187 17.2709375 -12 17 C-12.66 16.67 -13.32 16.34 -14 16 C-14 15.34 -14 14.68 -14 14 C-14.66 14 -15.32 14 -16 14 C-16.49029622 6.76813075 -16.49029622 6.76813075 -14.125 3.0625 C-9.97711574 -0.96338766 -5.53144596 -0.60142827 0 0 Z " fill="#EDEEED" transform="translate(712,457)"/>
<path d="M0 0 C3.11937969 1.37252707 4.4897715 1.979543 6 5 C6.08372659 6.52148326 6.10730027 8.04655778 6.09765625 9.5703125 C6.09443359 10.46621094 6.09121094 11.36210937 6.08789062 12.28515625 C6.07951172 13.22230469 6.07113281 14.15945313 6.0625 15.125 C6.05798828 16.06988281 6.05347656 17.01476562 6.04882812 17.98828125 C6.03702357 20.32558387 6.02055759 22.66276061 6 25 C3.08178537 25.13510253 0.16982348 25.2341305 -2.75 25.3125 C-3.575 25.35439453 -4.4 25.39628906 -5.25 25.43945312 C-11.38489188 25.56314046 -11.38489188 25.56314046 -14.54296875 22.671875 C-16.32892857 19.39681731 -16.70306294 17.67155089 -16 14 C-14.125 11.625 -14.125 11.625 -11 10 C-7.6379798 9.68176297 -4.36542941 9.76474668 -1 10 C-1.33 8.35 -1.66 6.7 -2 5 C-3.65 5 -5.3 5 -7 5 C-7.66 6.32 -8.32 7.64 -9 9 C-10.98 9 -12.96 9 -15 9 C-15.33665041 5.97014627 -15.20618506 4.36327844 -13.6875 1.6875 C-9.37163238 -1.02246339 -4.95435484 -0.62388172 0 0 Z " fill="#ECECED" transform="translate(902,465)"/>
<path d="M0 0 C3.11937969 1.37252707 4.4897715 1.979543 6 5 C6.08372659 6.52148326 6.10730027 8.04655778 6.09765625 9.5703125 C6.09443359 10.46621094 6.09121094 11.36210937 6.08789062 12.28515625 C6.07951172 13.22230469 6.07113281 14.15945313 6.0625 15.125 C6.05798828 16.06988281 6.05347656 17.01476562 6.04882812 17.98828125 C6.03702357 20.32558387 6.02055759 22.66276061 6 25 C3.08178537 25.13510253 0.16982348 25.2341305 -2.75 25.3125 C-3.575 25.35439453 -4.4 25.39628906 -5.25 25.43945312 C-11.38489188 25.56314046 -11.38489188 25.56314046 -14.54296875 22.671875 C-16.32892857 19.39681731 -16.70306294 17.67155089 -16 14 C-14.125 11.625 -14.125 11.625 -11 10 C-7.6379798 9.68176297 -4.36542941 9.76474668 -1 10 C-1.33 8.35 -1.66 6.7 -2 5 C-3.65 5 -5.3 5 -7 5 C-7.66 6.32 -8.32 7.64 -9 9 C-10.98 9 -12.96 9 -15 9 C-15.33665041 5.97014627 -15.20618506 4.36327844 -13.6875 1.6875 C-9.37163238 -1.02246339 -4.95435484 -0.62388172 0 0 Z " fill="#ECEDED" transform="translate(795,465)"/>
<path d="M0 0 C0.92683594 -0.0309375 1.85367188 -0.061875 2.80859375 -0.09375 C6.85801994 0.77931777 8.19417481 2.10511658 10.5625 5.5 C11.15467821 8.96281849 11.03576974 12.31266648 10.875 15.8125 C10.85244141 16.74384766 10.82988281 17.67519531 10.80664062 18.63476562 C10.74792078 20.9248396 10.66586858 23.21157875 10.5625 25.5 C7.89583333 25.5 5.22916667 25.5 2.5625 25.5 C1.51255859 25.56960938 1.51255859 25.56960938 0.44140625 25.640625 C-3.30453292 25.81749903 -5.70990925 25.92590678 -9 24 C-11.20151499 20.17127827 -11.06482322 17.89126255 -10.4375 13.5 C-8.06821737 10.97276519 -6.29284065 10.55615213 -2.87890625 10.33203125 C-0.38946797 10.31437566 2.07679993 10.36968174 4.5625 10.5 C3.9025 8.85 3.2425 7.2 2.5625 5.5 C0.08983235 5.84444881 0.08983235 5.84444881 -2.4375 6.5 C-2.7675 7.16 -3.0975 7.82 -3.4375 8.5 C-5.4175 8.5 -7.3975 8.5 -9.4375 8.5 C-9.6875 6.1875 -9.6875 6.1875 -9.4375 3.5 C-6.44529427 0.57754265 -4.1214631 0.04573052 0 0 Z " fill="#F1F3F2" transform="translate(734.4375,464.5)"/>
<path d="M0 0 C2.87029869 1.79393668 4.49131638 2.98263276 6 6 C6.13415472 8.6723621 6.04318541 11.32250488 6 14 C1.05 14 -3.9 14 -9 14 C-8.34 15.65 -7.68 17.3 -7 19 C-4.58380177 19.25030977 -4.58380177 19.25030977 -2 19 C-1.34 18.01 -0.68 17.02 0 16 C3.125 15.8125 3.125 15.8125 6 16 C5.72608098 19.2870282 5.18168017 20.78993231 3 23.3125 C-1.07978577 25.6073795 -4.41922524 25.95801792 -9 25 C-12.06583403 23.27267979 -14.40227558 21.19544885 -16 18 C-17.03037808 8.99155166 -17.03037808 8.99155166 -14.953125 4.9765625 C-10.59519657 -0.27858649 -6.51450485 -0.84384778 0 0 Z " fill="#EEEFEF" transform="translate(1028,465)"/>
<path d="M0 0 C1.98 0 3.96 0 6 0 C6.33 3.63 6.66 7.26 7 11 C7.33 10.67 7.66 10.34 8 10 C9.890625 9.7265625 9.890625 9.7265625 12.25 9.625 C13.40242187 9.55152344 13.40242187 9.55152344 14.578125 9.4765625 C18.42691888 10.3083986 19.72798286 11.8095928 22 15 C22.59669758 18.46188115 22.47325587 21.81296846 22.3125 25.3125 C22.28994141 26.24384766 22.26738281 27.17519531 22.24414062 28.13476562 C22.18542078 30.4248396 22.10336858 32.71157875 22 35 C20.02 35 18.04 35 16 35 C15.93941406 33.71222656 15.87882813 32.42445313 15.81640625 31.09765625 C15.73201753 29.41925841 15.6473687 27.74087364 15.5625 26.0625 C15.52318359 25.21236328 15.48386719 24.36222656 15.44335938 23.48632812 C15.38051758 22.27299805 15.38051758 22.27299805 15.31640625 21.03515625 C15.27974854 20.2862915 15.24309082 19.53742676 15.20532227 18.76586914 C15.18228937 16.97538674 15.18228937 16.97538674 14 16 C11.54190002 15.7499227 11.54190002 15.7499227 9 16 C5.97906785 19.02093215 6.53323166 22.56372072 6.375 26.625 C6.33632813 27.42679687 6.29765625 28.22859375 6.2578125 29.0546875 C6.16346069 31.03607556 6.08063785 33.01800645 6 35 C4.02 35 2.04 35 0 35 C0 23.45 0 11.9 0 0 Z " fill="#F0F1F1" transform="translate(752,455)"/>
<path d="M0 0 C1.68609375 -0.02900391 1.68609375 -0.02900391 3.40625 -0.05859375 C6.5 0.4375 6.5 0.4375 8.90625 2.21484375 C10.5 4.4375 10.5 4.4375 10.5 8.4375 C8.19 8.4375 5.88 8.4375 3.5 8.4375 C3.17 7.4475 2.84 6.4575 2.5 5.4375 C0.52 5.4375 -1.46 5.4375 -3.5 5.4375 C-2.84210372 8.58632091 -2.84210372 8.58632091 -0.3203125 9.53515625 C0.56914063 9.85355469 1.45859375 10.17195313 2.375 10.5 C5.45936491 11.61954353 7.74393629 12.60012419 10.5 14.4375 C11 17.8125 11 17.8125 10.5 21.4375 C7.27129064 24.66620936 4.80131509 26.33739884 0.25 26.6875 C-3.81194623 26.41670358 -6.07388065 25.58878424 -9.5 23.4375 C-11.5 20.4375 -11.5 20.4375 -11.5 16.4375 C-9.19 16.4375 -6.88 16.4375 -4.5 16.4375 C-4.5 17.7575 -4.5 19.0775 -4.5 20.4375 C-1.86 20.4375 0.78 20.4375 3.5 20.4375 C3.38059914 18.46024295 3.38059914 18.46024295 2.5 16.4375 C0.28271679 15.40216921 0.28271679 15.40216921 -2.375 14.875 C-5.9500458 14.03595864 -8.2620244 13.45768066 -10.5 10.4375 C-10.9375 6.9375 -10.9375 6.9375 -10.5 3.4375 C-7.31699364 0.11643553 -4.47004454 0.0051262 0 0 Z " fill="#EAEAEB" transform="translate(1193.5,464.5625)"/>
<path d="M0 0 C2.31 0 4.62 0 7 0 C7.33 6.27 7.66 12.54 8 19 C12.61024746 19.4063378 12.61024746 19.4063378 14.76953125 18.01171875 C16.71335825 14.83371587 16.57664537 11.43902988 16.6875 7.8125 C16.72166016 7.06291016 16.75582031 6.31332031 16.79101562 5.54101562 C16.87334294 3.69453162 16.93835281 1.84729006 17 0 C18.98 0 20.96 0 23 0 C23 8.25 23 16.5 23 25 C20 25 17 25 14 25 C13.30003906 25.05800781 12.60007812 25.11601562 11.87890625 25.17578125 C9.50258204 25.31603647 7.35668207 25.35371539 5 25 C2.34848513 22.48106087 0.11356379 19.88003026 -0.11352539 16.12060547 C-0.10828857 15.37697754 -0.10305176 14.63334961 -0.09765625 13.8671875 C-0.09443359 13.06152344 -0.09121094 12.25585938 -0.08789062 11.42578125 C-0.07951172 10.58402344 -0.07113281 9.74226563 -0.0625 8.875 C-0.05798828 8.02550781 -0.05347656 7.17601562 -0.04882812 6.30078125 C-0.03702874 4.20049091 -0.01909306 2.1002367 0 0 Z " fill="#EAEBEB" transform="translate(1090,465)"/>
<path d="M0 0 C3.1875 1.1875 3.1875 1.1875 5 3 C5.3125 5.6875 5.3125 5.6875 5 8 C3.02 8 1.04 8 -1 8 C-1 7.01 -1 6.02 -1 5 C-3.3431213 5.25561323 -5.67843403 5.59270772 -8 6 C-8.33 6.66 -8.66 7.32 -9 8 C-8.40832031 8.18175781 -7.81664062 8.36351562 -7.20703125 8.55078125 C2.70334928 11.70334928 2.70334928 11.70334928 6 15 C5.64741309 21.34656447 5.64741309 21.34656447 3.3203125 23.6953125 C-1.11311156 26.18818057 -6.08417544 25.72429611 -11 25 C-14.25 22.75 -14.25 22.75 -16 20 C-16 18.68 -16 17.36 -16 16 C-14.02 16 -12.04 16 -10 16 C-9.67 16.99 -9.34 17.98 -9 19 C-6.36 19.33 -3.72 19.66 -1 20 C-1 18.68 -1 17.36 -1 16 C-1.59167969 15.91363281 -2.18335938 15.82726562 -2.79296875 15.73828125 C-8.24468858 14.76888898 -11.65849702 13.74277843 -15 9 C-15.5625 5.875 -15.5625 5.875 -15 3 C-10.65650373 -1.24341571 -5.70529612 -0.61610446 0 0 Z " fill="#EDEDEE" transform="translate(1134,465)"/>
<path d="M0 0 C1.546875 0.00193359 1.546875 0.00193359 3.125 0.00390625 C6.33257275 0.48765703 7.77903572 1.08306431 10 3.4375 C10 4.7575 10 6.0775 10 7.4375 C8.33388095 7.480221 6.66617115 7.47813832 5 7.4375 C4.67 7.1075 4.34 6.7775 4 6.4375 C1.67182036 6.06989269 -0.6618385 5.73508419 -3 5.4375 C-2.31774598 8.62421343 -2.31774598 8.62421343 0.43359375 9.75390625 C1.42488281 10.16511719 2.41617188 10.57632812 3.4375 11 C8.81165919 13.24915919 8.81165919 13.24915919 11 15.4375 C10.77312077 21.67667888 10.77312077 21.67667888 8.28125 24.12890625 C4.10241554 26.52601163 -0.3425238 26.16334045 -5 25.4375 C-7.83852708 24.075007 -8.91054681 22.92225515 -11 20.4375 C-11 19.1175 -11 17.7975 -11 16.4375 C-8.69 16.4375 -6.38 16.4375 -4 16.4375 C-4 17.7575 -4 19.0775 -4 20.4375 C-0.04 19.9425 -0.04 19.9425 4 19.4375 C4.33 18.4475 4.66 17.4575 5 16.4375 C4.33613281 16.35113281 3.67226563 16.26476562 2.98828125 16.17578125 C-1.49384249 15.4625674 -4.4209201 14.86601913 -8.125 12.125 C-10 9.4375 -10 9.4375 -10.5625 6.875 C-9.2361673 1.1275583 -5.446646 -0.10212461 0 0 Z " fill="#EEEEEF" transform="translate(836,464.5625)"/>
<path d="M0 0 C6.93 0 13.86 0 21 0 C21 1.65 21 3.3 21 5 C16.05 5 11.1 5 6 5 C6 7.64 6 10.28 6 13 C10.62 13 15.24 13 20 13 C20 14.65 20 16.3 20 18 C15.38 18 10.76 18 6 18 C6 22.62 6 27.24 6 32 C4.02 32 2.04 32 0 32 C0 21.44 0 10.88 0 0 Z " fill="#F3F3F4" transform="translate(864,458)"/>
<path d="M0 0 C3.125 1.6875 3.125 1.6875 5 4 C5.3125 6.75 5.3125 6.75 5 9 C2.125 9.1875 2.125 9.1875 -1 9 C-1.66 8.01 -2.32 7.02 -3 6 C-4.98 6.33 -6.96 6.66 -9 7 C-9.07654536 11.51617599 -9.10228696 15.59085217 -8 20 C-4.535 19.505 -4.535 19.505 -1 19 C-1 17.68 -1 16.36 -1 15 C0.98 15 2.96 15 5 15 C4.50926986 21.50217441 4.50926986 21.50217441 2.26171875 23.69921875 C-1.65605951 25.95244874 -5.62405204 25.77763211 -10 25 C-13.125 22.625 -13.125 22.625 -15 20 C-15 19.34 -15 18.68 -15 18 C-15.66 18 -16.32 18 -17 18 C-17.86101859 7.24683455 -17.86101859 7.24683455 -14.625 3.375 C-10.07328933 -0.74321442 -5.96156197 -0.67383432 0 0 Z " fill="#ECECEE" transform="translate(1174,465)"/>
<path d="M0 0 C1.98 0 3.96 0 6 0 C6.433125 1.19625 6.86625 2.3925 7.3125 3.625 C8.6529584 7.21232201 10.21821184 10.60611779 12 14 C12.64633275 12.22934889 13.2920483 10.45847247 13.9375 8.6875 C14.29714844 7.70136719 14.65679688 6.71523438 15.02734375 5.69921875 C15.70885965 3.8079437 16.3642811 1.90715671 17 0 C19.31 0 21.62 0 24 0 C23.57028228 5.29985185 21.51240121 9.4947383 19.27734375 14.23046875 C17.6490518 17.76092439 16.31148788 21.34163907 15 25 C12.69 25 10.38 25 8 25 C7.75765625 24.24976563 7.5153125 23.49953125 7.265625 22.7265625 C5.30243343 16.73127746 3.21182616 10.86154666 0.734375 5.05859375 C0 3 0 3 0 0 Z " fill="#EBECEC" transform="translate(911,465)"/>
<path d="M0 0 C1.98 0 3.96 0 6 0 C6 1.98 6 3.96 6 6 C8.31 6 10.62 6 13 6 C13 7.65 13 9.3 13 11 C10.69 11 8.38 11 6 11 C6 15.95 6 20.9 6 26 C8.31 26 10.62 26 13 26 C13.33 27.32 13.66 28.64 14 30 C11.68566978 31.15716511 10.13939188 31.23210436 7.5625 31.3125 C6.38880859 31.36857422 6.38880859 31.36857422 5.19140625 31.42578125 C3 31 3 31 1.2265625 29.49609375 C-0.51448924 25.95299801 -0.32019563 22.60157581 -0.1875 18.75 C-0.16719727 17.63238281 -0.16719727 17.63238281 -0.14648438 16.4921875 C-0.11127204 14.66114584 -0.05746851 12.83047831 0 11 C-1.32 11 -2.64 11 -4 11 C-4 9.35 -4 7.7 -4 6 C-2.68 6 -1.36 6 0 6 C0 4.02 0 2.04 0 0 Z " fill="#EEEFF0" transform="translate(997,459)"/>
<path d="M0 0 C2.31 0 4.62 0 7 0 C7 11.55 7 23.1 7 35 C4.69 35 2.38 35 0 35 C0 23.45 0 11.9 0 0 Z " fill="#DCDEDF" transform="translate(807,455)"/>
<path d="M0 0 C5 0 5 0 6.58203125 1.53125 C6.98808594 2.1809375 7.39414063 2.830625 7.8125 3.5 C8.23144531 4.1496875 8.65039062 4.799375 9.08203125 5.46875 C9.38496094 5.9740625 9.68789062 6.479375 10 7 C10.33 4.69 10.66 2.38 11 0 C12.65 0 14.3 0 16 0 C16 5.61 16 11.22 16 17 C14.35 17 12.7 17 11 17 C9.19921875 15.03125 9.19921875 15.03125 7.6875 12.5 C6.91986328 11.24703125 6.91986328 11.24703125 6.13671875 9.96875 C5.76160156 9.3190625 5.38648438 8.669375 5 8 C4.67 10.97 4.34 13.94 4 17 C2.68 17 1.36 17 0 17 C0 11.39 0 5.78 0 0 Z " fill="#E7E9E8" transform="translate(179,56)"/>
<path d="M0 0 C4.62 0 9.24 0 14 0 C14 1.98 14 3.96 14 6 C11.69 6.33 9.38 6.66 7 7 C6.67 12.94 6.34 18.88 6 25 C4.02 25 2.04 25 0 25 C0 16.75 0 8.5 0 0 Z " fill="#F1F2F2" transform="translate(965,465)"/>
<path d="M0 0 C1.65 0 3.3 0 5 0 C5 5.94 5 11.88 5 18 C-3.3984375 18.1953125 -3.3984375 18.1953125 -6 18 C-8 16 -8 16 -8.25 12.5625 C-8 9 -8 9 -6 6 C-2.875 5.8125 -2.875 5.8125 0 6 C0 4.02 0 2.04 0 0 Z " fill="#E8EBEA" transform="translate(229,55)"/>
<path d="M0 0 C2.31 0 4.62 0 7 0 C7 8.25 7 16.5 7 25 C4.69 25 2.38 25 0 25 C0 16.75 0 8.5 0 0 Z " fill="#DFDFE1" transform="translate(1145,465)"/>
<path d="M0 0 C2.31 0 4.62 0 7 0 C7 8.25 7 16.5 7 25 C4.69 25 2.38 25 0 25 C0 16.75 0 8.5 0 0 Z " fill="#DDDEE0" transform="translate(982,465)"/>
<path d="M0 0 C0.66 0 1.32 0 2 0 C2.33 1.32 2.66 2.64 3 4 C5.3260857 4.38063221 7.66055264 4.71269945 10 5 C10.33 4.67 10.66 4.34 11 4 C13.5 3.875 13.5 3.875 16 4 C17 5 17 5 17.125 8 C17 11 17 11 16 12 C13.5625 12.1875 13.5625 12.1875 11 12 C10.34 11.34 9.68 10.68 9 10 C8.34 10.66 7.68 11.32 7 12 C4.6171875 12.1953125 4.6171875 12.1953125 1.875 12.125 C0.50988281 12.09792969 0.50988281 12.09792969 -0.8828125 12.0703125 C-1.58148437 12.04710938 -2.28015625 12.02390625 -3 12 C-3.33 11.34 -3.66 10.68 -4 10 C-5.32 10 -6.64 10 -8 10 C-8.33 10.66 -8.66 11.32 -9 12 C-9.66 12 -10.32 12 -11 12 C-10.57781184 10.3501725 -10.13675575 8.70516335 -9.6875 7.0625 C-9.44386719 6.14597656 -9.20023438 5.22945312 -8.94921875 4.28515625 C-8.47935547 3.15400391 -8.47935547 3.15400391 -8 2 C-7.01 1.67 -6.02 1.34 -5 1 C-5.66 3.31 -6.32 5.62 -7 8 C-6.34 8 -5.68 8 -5 8 C-5 6.68 -5 5.36 -5 4 C-4.34 4 -3.68 4 -3 4 C-2.34 5.65 -1.68 7.3 -1 9 C-0.67 6.03 -0.34 3.06 0 0 Z " fill="#888A93" transform="translate(1279,57)"/>
<path d="M0 0 C1.75 0.0625 1.75 0.0625 4 1 C5.59501537 3.24164322 6.74543018 5.53566643 8 8 C10.12038635 5.38485683 12.13091744 2.80362384 14 0 C15.32 0.33 16.64 0.66 18 1 C17.55527344 1.59167969 17.11054687 2.18335938 16.65234375 2.79296875 C16.08644531 3.58316406 15.52054688 4.37335937 14.9375 5.1875 C14.36902344 5.96480469 13.80054688 6.74210937 13.21484375 7.54296875 C11.28486597 11.44636433 12.68176832 14.04530495 14 18 C16.01508358 18.73323796 16.01508358 18.73323796 18 19 C17.34 19 16.68 19 16 19 C16.66 20.65 17.32 22.3 18 24 C16.68 24 15.36 24 14 24 C12.515625 22.25 12.515625 22.25 11.25 20 C10.82203125 19.2575 10.3940625 18.515 9.953125 17.75 C9.63859375 17.1725 9.3240625 16.595 9 16 C6.87961365 18.61514317 4.86908256 21.19637616 3 24 C2.01 24 1.02 24 0 24 C1.65025907 18.41450777 1.65025907 18.41450777 3.6875 16 C5.27162536 13.99790612 5.27162536 13.99790612 4.9375 11.125 C3.86330914 7.5443638 2.14255024 5.04103905 0 2 C0 1.34 0 0.68 0 0 Z " fill="#EEEFED" transform="translate(47,52)"/>
<path d="M0 0 C1.65 0 3.3 0 5 0 C5.33 1.98 5.66 3.96 6 6 C6.78375 5.95875 7.5675 5.9175 8.375 5.875 C11 6 11 6 13 8 C13.1953125 10.3828125 13.1953125 10.3828125 13.125 13.125 C13.10695312 14.03507812 13.08890625 14.94515625 13.0703125 15.8828125 C13.03550781 16.93082031 13.03550781 16.93082031 13 18 C11.35 18 9.7 18 8 18 C8 15.03 8 12.06 8 9 C7.01 9.495 7.01 9.495 6 10 C5.53476937 11.89533342 5.53476937 11.89533342 5.375 14.0625 C5.189375 16.0115625 5.189375 16.0115625 5 18 C3.35 18 1.7 18 0 18 C0 12.06 0 6.12 0 0 Z " fill="#E2E5E4" transform="translate(137,55)"/>
<path d="M0 0 C2 2 2 2 2.265625 4.53125 C2.26046875 5.5109375 2.2553125 6.490625 2.25 7.5 C2.25515625 8.4796875 2.2603125 9.459375 2.265625 10.46875 C2 13 2 13 0 15 C-2.9375 15.375 -2.9375 15.375 -6 15 C-8.2288277 13.21693784 -8.87382488 11.8709588 -9.28125 9.05859375 C-9.41375481 6.06067237 -9.36447879 3.6479623 -7.875 1 C-5.14368353 -0.45670212 -3.03989923 -0.32339354 0 0 Z " fill="#30383F" transform="translate(951,470)"/>
<path d="M0 0 C1.21816406 0.03480469 1.21816406 0.03480469 2.4609375 0.0703125 C3.68683594 0.09738281 3.68683594 0.09738281 4.9375 0.125 C5.87722656 0.15980469 5.87722656 0.15980469 6.8359375 0.1953125 C6.8359375 1.5153125 6.8359375 2.8353125 6.8359375 4.1953125 C3.8659375 3.7003125 3.8659375 3.7003125 0.8359375 3.1953125 C1.52450685 6.39244608 1.52450685 6.39244608 4.3359375 7.5703125 C6.8359375 9.1953125 6.8359375 9.1953125 7.8359375 11.6953125 C7.8359375 14.1953125 7.8359375 14.1953125 6.62890625 15.83984375 C4.31949399 17.58573929 3.00830757 17.50715468 0.1484375 17.3828125 C-0.65980469 17.35574219 -1.46804687 17.32867187 -2.30078125 17.30078125 C-2.91566406 17.26597656 -3.53054687 17.23117188 -4.1640625 17.1953125 C-4.1640625 15.5453125 -4.1640625 13.8953125 -4.1640625 12.1953125 C-1.1940625 12.6903125 -1.1940625 12.6903125 1.8359375 13.1953125 C2.1659375 12.5353125 2.4959375 11.8753125 2.8359375 11.1953125 C1.8665625 10.8859375 0.8971875 10.5765625 -0.1015625 10.2578125 C-3.1640625 9.1953125 -3.1640625 9.1953125 -4.1640625 8.1953125 C-4.3515625 5.2578125 -4.3515625 5.2578125 -4.1640625 2.1953125 C-2.1640625 0.1953125 -2.1640625 0.1953125 0 0 Z " fill="#EAEEEC" transform="translate(115.1640625,55.8046875)"/>
<path d="M0 0 C1.65 0 3.3 0 5 0 C5 2.97 5 5.94 5 9 C5.99 9 6.98 9 8 9 C8 6.03 8 3.06 8 0 C9.65 0 11.3 0 13 0 C13 3.96 13 7.92 13 12 C4.6015625 12.1953125 4.6015625 12.1953125 2 12 C0 10 0 10 -0.1953125 7.6171875 C-0.17210937 6.71226563 -0.14890625 5.80734375 -0.125 4.875 C-0.10695312 3.96492188 -0.08890625 3.05484375 -0.0703125 2.1171875 C-0.04710937 1.41851562 -0.02390625 0.71984375 0 0 Z " fill="#E4E6E5" transform="translate(197,61)"/>
<path d="M0 0 C6.625 -0.25 6.625 -0.25 10 2 C10.29296875 4.3828125 10.29296875 4.3828125 10.1875 7.125 C10.16042969 8.03507812 10.13335937 8.94515625 10.10546875 9.8828125 C10.07066406 10.58148438 10.03585938 11.28015625 10 12 C8.37509046 12.02698189 6.75005367 12.04638757 5.125 12.0625 C3.76761719 12.07990234 3.76761719 12.07990234 2.3828125 12.09765625 C0 12 0 12 -2 11 C-2.1875 8.625 -2.1875 8.625 -2 6 C-1.01 5.34 -0.02 4.68 1 4 C0.34 4 -0.32 4 -1 4 C-0.67 2.68 -0.34 1.36 0 0 Z " fill="#E5E7E7" transform="translate(153,61)"/>
<path d="M0 0 C6.04422604 7.45454545 6.04422604 7.45454545 5.8125 10.3125 C4.87281219 13.42069813 3.5292649 16.14093953 2 19 C-2.875 15.25 -2.875 15.25 -4 13 C-4.58394161 5.87591241 -4.58394161 5.87591241 -2 2 C-1.34 1.34 -0.68 0.68 0 0 Z " fill="#B7BA6C" transform="translate(47,54)"/>
<path d="M0 0 C1.875 0.3125 1.875 0.3125 4 1 C6.46751239 4.70126859 6.30721156 6.62223532 6 11 C5 13.4375 5 13.4375 4 15 C1.1875 15.3125 1.1875 15.3125 -2 15 C-4.00568307 12.67081966 -5.03819905 11.18417056 -4.9375 8.0625 C-3.61126004 5.14477209 -1.84205187 2.61452523 0 0 Z " fill="#7B7F29" transform="translate(63,55)"/>
<path d="M0 0 C8.49609375 -0.09765625 8.49609375 -0.09765625 11 0 C12 1 12 1 12.09765625 3.50390625 C12.08605469 4.51324219 12.07445312 5.52257812 12.0625 6.5625 C12.05347656 7.57441406 12.04445312 8.58632812 12.03515625 9.62890625 C12.02355469 10.41136719 12.01195312 11.19382812 12 12 C10.68 12 9.36 12 8 12 C7.8046875 9.94921875 7.609375 7.8984375 7.4140625 5.84765625 C7.27742187 5.23792969 7.14078125 4.62820312 7 4 C6.34 3.67 5.68 3.34 5 3 C5 5.97 5 8.94 5 12 C3.35 12 1.7 12 0 12 C0 8.04 0 4.08 0 0 Z " fill="#EBEEED" transform="translate(243,61)"/>
<path d="M0 0 C6.75 -0.125 6.75 -0.125 9 1 C9 4.63 9 8.26 9 12 C1.28515625 12.09765625 1.28515625 12.09765625 -1 12 C-2 11 -2 11 -2.25 8.5625 C-2.1675 7.716875 -2.085 6.87125 -2 6 C-1.01 5.34 -0.02 4.68 1 4 C0.34 4 -0.32 4 -1 4 C-0.67 2.68 -0.34 1.36 0 0 Z " fill="#EEF0EF" transform="translate(126,61)"/>
<path d="M0 0 C0.99 0 1.98 0 3 0 C3.99 2.31 4.98 4.62 6 7 C6.33 5.68 6.66 4.36 7 3 C8.98 3 10.96 3 13 3 C13 2.34 13 1.68 13 1 C13.66 1 14.32 1 15 1 C15 1.66 15 2.32 15 3 C15.66 3.33 16.32 3.66 17 4 C16.34 4 15.68 4 15 4 C15 5.98 15 7.96 15 10 C15.66 10.33 16.32 10.66 17 11 C15.68 10.67 14.36 10.34 13 10 C13 8.02 13 6.04 13 4 C12.01 4.33 11.02 4.66 10 5 C9.67 6.98 9.34 8.96 9 11 C7.35 11 5.7 11 4 11 C3.67 10.34 3.34 9.68 3 9 C1.68 9 0.36 9 -1 9 C-1.33 9.66 -1.66 10.32 -2 11 C-2.66 10.67 -3.32 10.34 -4 10 C-2.68 6.7 -1.36 3.4 0 0 Z " fill="#797A8C" transform="translate(1591,58)"/>
<path d="M0 0 C1.65 0 3.3 0 5 0 C5 5.94 5 11.88 5 18 C3.35 18 1.7 18 0 18 C0 12.06 0 6.12 0 0 Z " fill="#E1E3E3" transform="translate(165,55)"/>
<path d="M0 0 C0.66 0 1.32 0 2 0 C2.66 1.65 3.32 3.3 4 5 C4.66 3.35 5.32 1.7 6 0 C6.99 0.33 7.98 0.66 9 1 C9 2.65 9 4.3 9 6 C9.66 6 10.32 6 11 6 C11.33 4.02 11.66 2.04 12 0 C12.66 0 13.32 0 14 0 C13.34 3.63 12.68 7.26 12 11 C11.01 11 10.02 11 9 11 C8.34 9.68 7.68 8.36 7 7 C6.34 8.32 5.68 9.64 5 11 C4.01 11 3.02 11 2 11 C0.80712589 7.12315913 0 4.08378077 0 0 Z " fill="#78787E" transform="translate(1806,58)"/>
<path d="M0 0 C0.99 0 1.98 0 3 0 C4.4606285 2.64738916 5 3.89448334 5 7 C5.66 7 6.32 7 7 7 C7.66 4.69 8.32 2.38 9 0 C9.99 0 10.98 0 12 0 C12 3.63 12 7.26 12 11 C11.34 11 10.68 11 10 11 C9.67 10.01 9.34 9.02 9 8 C8.01 9.485 8.01 9.485 7 11 C6.34 11 5.68 11 5 11 C4.34 9.68 3.68 8.36 3 7 C2.67 8.32 2.34 9.64 2 11 C1.34 11 0.68 11 0 11 C0 7.37 0 3.74 0 0 Z " fill="#73747A" transform="translate(1767,58)"/>
<path d="M0 0 C3 0 6 0 9 0 C9.66 1.32 10.32 2.64 11 4 C11.66 2.68 12.32 1.36 13 0 C13.66 0.33 14.32 0.66 15 1 C14.01 3.31 13.02 5.62 12 8 C11.01 8 10.02 8 9 8 C8.67 7.34 8.34 6.68 8 6 C7.67 6.66 7.34 7.32 7 8 C4.69 8 2.38 8 0 8 C-0.33 6.68 -0.66 5.36 -1 4 C0.65 3.67 2.3 3.34 4 3 C4 2.34 4 1.68 4 1 C2.68 1.33 1.36 1.66 0 2 C0 1.34 0 0.68 0 0 Z " fill="#7F7F8F" transform="translate(1525,61)"/>
<path d="M0 0 C0.99 0.33 1.98 0.66 3 1 C2.34 1 1.68 1 1 1 C1 1.99 1 2.98 1 4 C2.32 4.33 3.64 4.66 5 5 C5 5.99 5 6.98 5 8 C5.66 8 6.32 8 7 8 C7.33 6.68 7.66 5.36 8 4 C8.66 4 9.32 4 10 4 C8.85814266 8.47959418 7.56984833 12.14522751 5 16 C4.01 15.67 3.02 15.34 2 15 C2.66 15 3.32 15 4 15 C3.34 12.03 2.68 9.06 2 6 C1.67 7.98 1.34 9.96 1 12 C0.01 12 -0.98 12 -2 12 C-2.33 9.36 -2.66 6.72 -3 4 C-2.34 4 -1.68 4 -1 4 C-0.67 2.68 -0.34 1.36 0 0 Z " fill="#72737A" transform="translate(1710,57)"/>
<path d="M0 0 C0.66 0 1.32 0 2 0 C2.03738281 0.69867188 2.07476563 1.39734375 2.11328125 2.1171875 C2.21189453 3.48230469 2.21189453 3.48230469 2.3125 4.875 C2.39951172 6.23238281 2.39951172 6.23238281 2.48828125 7.6171875 C2.7882039 10.36221601 2.7882039 10.36221601 6 12 C3.03 12 0.06 12 -3 12 C-3.33 11.34 -3.66 10.68 -4 10 C-5.32 10 -6.64 10 -8 10 C-8.33 10.66 -8.66 11.32 -9 12 C-9.66 12 -10.32 12 -11 12 C-10.57781184 10.3501725 -10.13675575 8.70516335 -9.6875 7.0625 C-9.44386719 6.14597656 -9.20023438 5.22945312 -8.94921875 4.28515625 C-8.47935547 3.15400391 -8.47935547 3.15400391 -8 2 C-7.01 1.67 -6.02 1.34 -5 1 C-5.66 3.31 -6.32 5.62 -7 8 C-6.34 8 -5.68 8 -5 8 C-5 6.68 -5 5.36 -5 4 C-4.34 4 -3.68 4 -3 4 C-2.34 5.65 -1.68 7.3 -1 9 C-0.67 6.03 -0.34 3.06 0 0 Z " fill="#7B7D88" transform="translate(1279,57)"/>
<path d="M0 0 C0.66 0 1.32 0 2 0 C2 0.66 2 1.32 2 2 C2.66 2.33 3.32 2.66 4 3 C3.34 3 2.68 3 2 3 C2 4.98 2 6.96 2 9 C2.66 9.33 3.32 9.66 4 10 C2.68 10 1.36 10 0 10 C0 7.69 0 5.38 0 3 C-0.66 3 -1.32 3 -2 3 C-2 5.31 -2 7.62 -2 10 C-2.99 10 -3.98 10 -5 10 C-5 7.69 -5 5.38 -5 3 C-5.99 3.495 -5.99 3.495 -7 4 C-7.65772428 7.02934491 -7.65772428 7.02934491 -8 10 C-8.66 10 -9.32 10 -10 10 C-10 7.36 -10 4.72 -10 2 C-6.7 2 -3.4 2 0 2 C0 1.34 0 0.68 0 0 Z " fill="#767785" transform="translate(1401,59)"/>
<path d="M0 0 C0.66 0 1.32 0 2 0 C2 0.66 2 1.32 2 2 C2.66 2.33 3.32 2.66 4 3 C3.34 3 2.68 3 2 3 C2 4.98 2 6.96 2 9 C2.66 9.33 3.32 9.66 4 10 C2.68 10 1.36 10 0 10 C0 7.69 0 5.38 0 3 C-0.66 3 -1.32 3 -2 3 C-2 5.31 -2 7.62 -2 10 C-2.99 10 -3.98 10 -5 10 C-5 7.69 -5 5.38 -5 3 C-5.99 3.495 -5.99 3.495 -7 4 C-7.65772428 7.02934491 -7.65772428 7.02934491 -8 10 C-8.66 10 -9.32 10 -10 10 C-10 7.36 -10 4.72 -10 2 C-6.7 2 -3.4 2 0 2 C0 1.34 0 0.68 0 0 Z " fill="#717084" transform="translate(1560,59)"/>
<path d="M0 0 C2.64 0 5.28 0 8 0 C8 0.99 8 1.98 8 3 C7.01 3.495 7.01 3.495 6 4 C5.53476937 5.89533342 5.53476937 5.89533342 5.375 8.0625 C5.189375 10.0115625 5.189375 10.0115625 5 12 C3.35 12 1.7 12 0 12 C0 8.04 0 4.08 0 0 Z " fill="#E8EBEA" transform="translate(212,61)"/>
<path d="M0 0 C0.66 0 1.32 0 2 0 C2.33 1.32 2.66 2.64 3 4 C4.65 4.33 6.3 4.66 8 5 C8.04254356 6.99954746 8.04080783 9.00041636 8 11 C7 12 7 12 3.4375 12.0625 C2.303125 12.041875 1.16875 12.02125 0 12 C0 8.04 0 4.08 0 0 Z " fill="#7A7B80" transform="translate(1829,57)"/>
<path d="M0 0 C6 0 6 0 8 1 C8.125 3.375 8.125 3.375 8 6 C7.34 6.66 6.68 7.32 6 8 C4.68 8 3.36 8 2 8 C2 9.32 2 10.64 2 12 C1.34 12 0.68 12 0 12 C0 8.04 0 4.08 0 0 Z " fill="#777880" transform="translate(1680,61)"/>
<path d="M0 0 C2.97 0 5.94 0 9 0 C8.67 0.66 8.34 1.32 8 2 C7.34 1.67 6.68 1.34 6 1 C6.7734375 1.61875 6.7734375 1.61875 7.5625 2.25 C8.036875 2.8275 8.51125 3.405 9 4 C8.6875 6.1875 8.6875 6.1875 8 8 C5.36 8 2.72 8 0 8 C0 5.36 0 2.72 0 0 Z " fill="#68697B" transform="translate(1609,61)"/>
<path d="M0 0 C1.65 0 3.3 0 5 0 C5 3.96 5 7.92 5 12 C3.35 12 1.7 12 0 12 C0 8.04 0 4.08 0 0 Z " fill="#F5F5F5" transform="translate(818,456)"/>
<path d="M0 0 C1.65 0 3.3 0 5 0 C5 3.96 5 7.92 5 12 C3.35 12 1.7 12 0 12 C0 8.04 0 4.08 0 0 Z " fill="#E3E7E5" transform="translate(236,61)"/>
<path d="M0 0 C0 1.98 0 3.96 0 6 C-2.3260857 6.38063221 -4.66055264 6.71269945 -7 7 C-8 6 -8 6 -8.0625 2.9375 C-8.041875 1.968125 -8.02125 0.99875 -8 0 C-5.13822943 -1.43088528 -3.06624227 -0.59991697 0 0 Z " fill="#7A7B81" transform="translate(1697,62)"/>
<path d="M0 0 C0.33 1.32 0.66 2.64 1 4 C2.98 4 4.96 4 7 4 C7.66 2.68 8.32 1.36 9 0 C10.65 0.33 12.3 0.66 14 1 C14.33 2.65 14.66 4.3 15 6 C11.37 6.33 7.74 6.66 4 7 C4 6.34 4 5.68 4 5 C2.68 5 1.36 5 0 5 C0 3.35 0 1.7 0 0 Z " fill="#475E50" transform="translate(724,469)"/>
<path d="M0 0 C2.5 0.125 2.5 0.125 3.5 1.125 C3.625 4.125 3.625 4.125 3.5 7.125 C2.5 8.125 2.5 8.125 0.0625 8.3125 C-2.5 8.125 -2.5 8.125 -4.5 6.125 C-3.77607362 0.18880368 -3.77607362 0.18880368 0 0 Z " fill="#818191" transform="translate(1544.5,60.875)"/>
<path d="M0 0 C2.5 0.125 2.5 0.125 3.5 1.125 C3.625 4.125 3.625 4.125 3.5 7.125 C2.5 8.125 2.5 8.125 0.0625 8.3125 C-2.5 8.125 -2.5 8.125 -4.5 6.125 C-3.77607362 0.18880368 -3.77607362 0.18880368 0 0 Z " fill="#7E808D" transform="translate(1385.5,60.875)"/>
<path d="M0 0 C2.5 0.125 2.5 0.125 3.5 1.125 C3.5 2.775 3.5 4.425 3.5 6.125 C0.2 6.125 -3.1 6.125 -6.5 6.125 C-5.84 5.795 -5.18 5.465 -4.5 5.125 C-4.1278958 3.80196283 -3.79369827 2.46762065 -3.5 1.125 C-2.5 0.125 -2.5 0.125 0 0 Z " fill="#394148" transform="translate(897.5,468.875)"/>
<path d="M0 0 C2.5 0.125 2.5 0.125 3.5 1.125 C3.5 2.775 3.5 4.425 3.5 6.125 C0.2 6.125 -3.1 6.125 -6.5 6.125 C-5.84 5.795 -5.18 5.465 -4.5 5.125 C-4.1278958 3.80196283 -3.79369827 2.46762065 -3.5 1.125 C-2.5 0.125 -2.5 0.125 0 0 Z " fill="#3A444A" transform="translate(790.5,468.875)"/>
<path d="M0 0 C4.75 0.875 4.75 0.875 7 2 C6.6875 3.875 6.6875 3.875 6 6 C5.01 6.66 4.02 7.32 3 8 C1.68 7.34 0.36 6.68 -1 6 C-0.67 4.02 -0.34 2.04 0 0 Z " fill="#727580" transform="translate(1282,61)"/>
<path d="M0 0 C2.05078125 0.03255208 4.1015625 0.06510417 6.15234375 0.09765625 C6.15234375 1.41765625 6.15234375 2.73765625 6.15234375 4.09765625 C3.79795642 5.5271057 2.67201942 6.18426886 -0.09765625 5.72265625 C-0.67515625 5.51640625 -1.25265625 5.31015625 -1.84765625 5.09765625 C-2.41015625 3.16015625 -2.41015625 3.16015625 -2.84765625 1.09765625 C-1.84765625 0.09765625 -1.84765625 0.09765625 0 0 Z " fill="#353C43" transform="translate(894.84765625,479.90234375)"/>
<path d="M0 0 C2.05078125 0.03255208 4.1015625 0.06510417 6.15234375 0.09765625 C6.15234375 1.41765625 6.15234375 2.73765625 6.15234375 4.09765625 C3.79795642 5.5271057 2.67201942 6.18426886 -0.09765625 5.72265625 C-0.67515625 5.51640625 -1.25265625 5.31015625 -1.84765625 5.09765625 C-2.41015625 3.16015625 -2.41015625 3.16015625 -2.84765625 1.09765625 C-1.84765625 0.09765625 -1.84765625 0.09765625 0 0 Z " fill="#364047" transform="translate(787.84765625,479.90234375)"/>
<path d="M0 0 C2.05078125 0.03255208 4.1015625 0.06510417 6.15234375 0.09765625 C5.83984375 1.97265625 5.83984375 1.97265625 5.15234375 4.09765625 C2.15234375 6.09765625 2.15234375 6.09765625 -0.03515625 5.72265625 C-0.63328125 5.51640625 -1.23140625 5.31015625 -1.84765625 5.09765625 C-2.41015625 3.16015625 -2.41015625 3.16015625 -2.84765625 1.09765625 C-1.84765625 0.09765625 -1.84765625 0.09765625 0 0 Z " fill="#395042" transform="translate(732.84765625,479.90234375)"/>
<path d="M0 0 C1.66611905 -0.042721 3.33382885 -0.04063832 5 0 C6 1 6 1 6.0625 4.5625 C6.041875 5.696875 6.02125 6.83125 6 8 C4.02 8 2.04 8 0 8 C-0.33 6.68 -0.66 5.36 -1 4 C0.65 3.67 2.3 3.34 4 3 C4 2.34 4 1.68 4 1 C2.68 1.33 1.36 1.66 0 2 C0 1.34 0 0.68 0 0 Z " fill="#828390" transform="translate(1366,61)"/>
<path d="M0 0 C1.2065625 0.0309375 1.2065625 0.0309375 2.4375 0.0625 C2.7675 1.3825 3.0975 2.7025 3.4375 4.0625 C1.7875 4.0625 0.1375 4.0625 -1.5625 4.0625 C-1.5625 5.0525 -1.5625 6.0425 -1.5625 7.0625 C0.0875 6.7325 1.7375 6.4025 3.4375 6.0625 C3.1075 6.7225 2.7775 7.3825 2.4375 8.0625 C0.0625 8.1875 0.0625 8.1875 -2.5625 8.0625 C-3.2225 7.4025 -3.8825 6.7425 -4.5625 6.0625 C-3.83457637 0.09352625 -3.83457637 0.09352625 0 0 Z " fill="#757587" transform="translate(1466.5625,60.9375)"/>
<path d="M0 0 C2.33294775 -0.04241723 4.66702567 -0.04092937 7 0 C8 1 8 1 8.0625 4.5625 C8.041875 5.696875 8.02125 6.83125 8 8 C7.34 8 6.68 8 6 8 C5.87625 7.030625 5.7525 6.06125 5.625 5.0625 C5.315625 3.5465625 5.315625 3.5465625 5 2 C4.34 1.67 3.68 1.34 3 1 C3 3.31 3 5.62 3 8 C2.01 8 1.02 8 0 8 C0 5.36 0 2.72 0 0 Z " fill="#787989" transform="translate(1448,61)"/>
<path d="M0 0 C0.33 1.65 0.66 3.3 1 5 C-1.97 5 -4.94 5 -8 5 C-8 3.68 -8 2.36 -8 1 C-5.29120665 -0.35439668 -2.99066732 -0.06501451 0 0 Z " fill="#364044" transform="translate(1027,470)"/>
<path d="M0 0 C1.2065625 0.0309375 1.2065625 0.0309375 2.4375 0.0625 C3.5625 4.8125 3.5625 4.8125 2.4375 7.0625 C0.7875 6.7325 -0.8625 6.4025 -2.5625 6.0625 C-2.94468767 4.40635343 -3.27645102 2.73792976 -3.5625 1.0625 C-2.5625 0.0625 -2.5625 0.0625 0 0 Z " fill="#E0E1E2" transform="translate(1148.5625,454.9375)"/>
<path d="M0 0 C1.2065625 0.0309375 1.2065625 0.0309375 2.4375 0.0625 C3.0625 2.4375 3.0625 2.4375 3.4375 5.0625 C2.7775 5.7225 2.1175 6.3825 1.4375 7.0625 C-0.6875 6.6875 -0.6875 6.6875 -2.5625 6.0625 C-2.94468767 4.40635343 -3.27645102 2.73792976 -3.5625 1.0625 C-2.5625 0.0625 -2.5625 0.0625 0 0 Z " fill="#E3E4E5" transform="translate(985.5625,454.9375)"/>
<path d="M0 0 C1.2065625 0.0309375 1.2065625 0.0309375 2.4375 0.0625 C3.37173645 3.07281744 3.48199911 3.92900268 2.4375 7.0625 C0.77138095 7.105221 -0.89632885 7.10313832 -2.5625 7.0625 C-3.5625 6.0625 -3.5625 6.0625 -3.6875 3.5625 C-3.51717518 0.15600356 -3.41884482 0.08338646 0 0 Z " fill="#D7DEDA" transform="translate(127.5625,65.9375)"/>
<path d="M0 0 C2.00720923 0.28674418 4.0085944 0.61866701 6 1 C6 1.99 6 2.98 6 4 C4.02 4 2.04 4 0 4 C0.33 4.66 0.66 5.32 1 6 C2.32 6 3.64 6 5 6 C5 6.66 5 7.32 5 8 C2.625 8.125 2.625 8.125 0 8 C-0.66 7.34 -1.32 6.68 -2 6 C-1.44444444 1.44444444 -1.44444444 1.44444444 0 0 Z " fill="#727279" transform="translate(1856,61)"/>
<path d="M0 0 C2.00720923 0.28674418 4.0085944 0.61866701 6 1 C6 1.99 6 2.98 6 4 C4.02 4 2.04 4 0 4 C0.33 4.66 0.66 5.32 1 6 C2.32 6 3.64 6 5 6 C5 6.66 5 7.32 5 8 C2.625 8.125 2.625 8.125 0 8 C-0.66 7.34 -1.32 6.68 -2 6 C-1.44444444 1.44444444 -1.44444444 1.44444444 0 0 Z " fill="#727378" transform="translate(1822,61)"/>
<path d="M0 0 C1.2065625 0.0309375 1.2065625 0.0309375 2.4375 0.0625 C2.7675 1.3825 3.0975 2.7025 3.4375 4.0625 C1.7875 4.0625 0.1375 4.0625 -1.5625 4.0625 C-1.5625 5.0525 -1.5625 6.0425 -1.5625 7.0625 C0.0875 6.7325 1.7375 6.4025 3.4375 6.0625 C3.1075 6.7225 2.7775 7.3825 2.4375 8.0625 C0.77138095 8.105221 -0.89632885 8.10313832 -2.5625 8.0625 C-3.5625 7.0625 -3.5625 7.0625 -3.6875 4.0625 C-3.52180824 0.08589776 -3.52180824 0.08589776 0 0 Z " fill="#787888" transform="translate(1443.5625,60.9375)"/>
<path d="M0 0 C2.00720923 0.28674418 4.0085944 0.61866701 6 1 C6 1.99 6 2.98 6 4 C4.02 4 2.04 4 0 4 C0.33 4.66 0.66 5.32 1 6 C2.32 6 3.64 6 5 6 C5 6.66 5 7.32 5 8 C2.625 8.125 2.625 8.125 0 8 C-0.66 7.34 -1.32 6.68 -2 6 C-1.44444444 1.44444444 -1.44444444 1.44444444 0 0 Z " fill="#767886" transform="translate(1407,61)"/>
<path d="M0 0 C0.66 0 1.32 0 2 0 C2 0.66 2 1.32 2 2 C2.66 2.33 3.32 2.66 4 3 C3.34 3 2.68 3 2 3 C2 4.98 2 6.96 2 9 C2.66 9.33 3.32 9.66 4 10 C2.68 9.67 1.36 9.34 0 9 C0 7.02 0 5.04 0 3 C-0.99 3.33 -1.98 3.66 -3 4 C-3.33 5.98 -3.66 7.96 -4 10 C-4.33 10 -4.66 10 -5 10 C-5 7.36 -5 4.72 -5 2 C-3.35 2 -1.7 2 0 2 C0 1.34 0 0.68 0 0 Z " fill="#868696" transform="translate(1604,59)"/>
<path d="M0 0 C1.99954746 -0.04254356 4.00041636 -0.04080783 6 0 C7 1 7 1 7.0625 4.5625 C7.041875 5.696875 7.02125 6.83125 7 8 C6.34 8 5.68 8 5 8 C5 5.69 5 3.38 5 1 C4.01 1.495 4.01 1.495 3 2 C2.34227572 5.02934491 2.34227572 5.02934491 2 8 C1.34 8 0.68 8 0 8 C0 5.36 0 2.72 0 0 Z " fill="#7B7D82" transform="translate(1793,61)"/>
<path d="M0 0 C0.66 0 1.32 0 2 0 C2 2.31 2 4.62 2 7 C2.66 6.67 3.32 6.34 4 6 C4.65772428 2.97065509 4.65772428 2.97065509 5 0 C5.66 0 6.32 0 7 0 C7 2.64 7 5.28 7 8 C5.00045254 8.04254356 2.99958364 8.04080783 1 8 C0 7 0 7 -0.0625 3.4375 C-0.041875 2.303125 -0.02125 1.16875 0 0 Z " fill="#7E8088" transform="translate(1298,61)"/>
<path d="M0 0 C3 1 3 1 4 3 C4.66 2.01 5.32 1.02 6 0 C6.66 0.33 7.32 0.66 8 1 C7.01 3.31 6.02 5.62 5 8 C4.01 8 3.02 8 2 8 C1.34 5.36 0.68 2.72 0 0 Z " fill="#767785" transform="translate(1373,61)"/>
<path d="M0 0 C0.66 0.33 1.32 0.66 2 1 C2 5.62 2 10.24 2 15 C1.34 15 0.68 15 0 15 C-0.19517554 13.06325815 -0.38087873 11.12555991 -0.5625 9.1875 C-0.66691406 8.10855469 -0.77132813 7.02960938 -0.87890625 5.91796875 C-1 3 -1 3 0 0 Z " fill="#4D4A54" transform="translate(1145,281)"/>
<path d="M0 0 C0.99 0.33 1.98 0.66 3 1 C3 2.98 3 4.96 3 7 C1.68 7.33 0.36 7.66 -1 8 C-1.625 5.6875 -1.625 5.6875 -2 3 C-1.34 2.01 -0.68 1.02 0 0 Z " fill="#14245A" transform="translate(60,59)"/>
<path d="M0 0 C0.99 0 1.98 0 3 0 C4.125 4.75 4.125 4.75 3 7 C1.35 6.67 -0.3 6.34 -2 6 C-1.34 4.02 -0.68 2.04 0 0 Z " fill="#67687C" transform="translate(1591,58)"/>
<path d="M0 0 C0.66 0 1.32 0 2 0 C2 0.66 2 1.32 2 2 C3.32 2.33 4.64 2.66 6 3 C5.34 3 4.68 3 4 3 C4.66 4.65 5.32 6.3 6 8 C4.68 8 3.36 8 2 8 C0.1875 5.6875 0.1875 5.6875 -1 3 C-0.67 2.01 -0.34 1.02 0 0 Z " fill="#E0E2DA" transform="translate(59,68)"/>
<path d="M0 0 C1 3 1 3 0 6 C-0.99 6 -1.98 6 -3 6 C-3.33 5.34 -3.66 4.68 -4 4 C-4.99 5.32 -5.98 6.64 -7 8 C-7 6.35 -7 4.7 -7 3 C-4.69 2.01 -2.38 1.02 0 0 Z " fill="#B4BAB9" transform="translate(158,64)"/>
<path d="M0 0 C1.98 0 3.96 0 6 0 C4.68 0.33 3.36 0.66 2 1 C2 2.32 2 3.64 2 5 C3.32 5.33 4.64 5.66 6 6 C4.68 6 3.36 6 2 6 C2 7.65 2 9.3 2 11 C1.34 11 0.68 11 0 11 C0 7.37 0 3.74 0 0 Z " fill="#828491" transform="translate(1359,58)"/>
<path d="M0 0 C0.99 0 1.98 0 3 0 C3.33 1.98 3.66 3.96 4 6 C3.67 6 3.34 6 3 6 C2.67 7.65 2.34 9.3 2 11 C1.34 11 0.68 11 0 11 C0 7.37 0 3.74 0 0 Z " fill="#7D7D83" transform="translate(1767,58)"/>
<path d="M0 0 C1.98 0 3.96 0 6 0 C4.68 0.33 3.36 0.66 2 1 C2 2.32 2 3.64 2 5 C3.32 5.33 4.64 5.66 6 6 C4.68 6 3.36 6 2 6 C2 7.65 2 9.3 2 11 C1.34 11 0.68 11 0 11 C0 7.37 0 3.74 0 0 Z " fill="#838393" transform="translate(1518,58)"/>
<path d="M0 0 C2.0625 0.4375 2.0625 0.4375 4 1 C3.01 1.33 2.02 1.66 1 2 C2.32 2 3.64 2 5 2 C5 2.66 5 3.32 5 4 C3.35 4 1.7 4 0 4 C0.33 4.66 0.66 5.32 1 6 C2.65 6 4.3 6 6 6 C5.67 6.66 5.34 7.32 5 8 C2.625 8.125 2.625 8.125 0 8 C-0.66 7.34 -1.32 6.68 -2 6 C-1.44444444 1.44444444 -1.44444444 1.44444444 0 0 Z " fill="#868697" transform="translate(1566,61)"/>
<path d="M0 0 C1.65 0 3.3 0 5 0 C5.6875 1.75 5.6875 1.75 6 4 C4.5625 6.25 4.5625 6.25 3 8 C0.4345406 5.4345406 0.45953913 3.52313332 0 0 Z " fill="#B7B935" transform="translate(45,65)"/>
<path d="M0 0 C1.65 0 3.3 0 5 0 C4.67 0.66 4.34 1.32 4 2 C3.34 1.67 2.68 1.34 2 1 C2.7734375 1.61875 2.7734375 1.61875 3.5625 2.25 C4.036875 2.8275 4.51125 3.405 5 4 C4.6875 6.1875 4.6875 6.1875 4 8 C2.35 8 0.7 8 -1 8 C-1 7.34 -1 6.68 -1 6 C0.32 6.33 1.64 6.66 3 7 C1.68 5.68 0.36 4.36 -1 3 C-0.67 2.01 -0.34 1.02 0 0 Z " fill="#7F8091" transform="translate(1577,61)"/>
<path d="M0 0 C1.65 0 3.3 0 5 0 C4.67 0.66 4.34 1.32 4 2 C3.34 1.67 2.68 1.34 2 1 C2.7734375 1.61875 2.7734375 1.61875 3.5625 2.25 C4.036875 2.8275 4.51125 3.405 5 4 C4.6875 6.1875 4.6875 6.1875 4 8 C2.35 8 0.7 8 -1 8 C-1 7.34 -1 6.68 -1 6 C0.32 6.33 1.64 6.66 3 7 C1.68 5.68 0.36 4.36 -1 3 C-0.67 2.01 -0.34 1.02 0 0 Z " fill="#7E7F8D" transform="translate(1418,61)"/>
<path d="M0 0 C1.32 0.33 2.64 0.66 4 1 C2.35 3.64 0.7 6.28 -1 9 C-1.99 8.67 -2.98 8.34 -4 8 C-2.87548273 5.0280615 -1.77706209 2.66559313 0 0 Z " fill="#E6E8E4" transform="translate(61,52)"/>
<path d="M0 0 C1.98 0 3.96 0 6 0 C6 0.99 6 1.98 6 3 C5.01 2.67 4.02 2.34 3 2 C2.34 5.3 1.68 8.6 1 12 C0.67 12 0.34 12 0 12 C0 8.04 0 4.08 0 0 Z " fill="#82838A" transform="translate(1680,61)"/>
<path d="M0 0 C1.65 0 3.3 0 5 0 C4.01 0.495 4.01 0.495 3 1 C3 3.31 3 5.62 3 8 C2.01 8 1.02 8 0 8 C0 5.36 0 2.72 0 0 Z " fill="#757587" transform="translate(1457,61)"/>
<path d="M0 0 C1.98 0.495 1.98 0.495 4 1 C3.67 2.65 3.34 4.3 3 6 C1.68 5.67 0.36 5.34 -1 5 C-0.67 3.35 -0.34 1.7 0 0 Z " fill="#383B4A" transform="translate(1291,62)"/>
<path d="M0 0 C1.65 0.33 3.3 0.66 5 1 C5 3.31 5 5.62 5 8 C3.35 8 1.7 8 0 8 C0.99 7.67 1.98 7.34 3 7 C3 6.01 3 5.02 3 4 C2.34 3.67 1.68 3.34 1 3 C1.66 3 2.32 3 3 3 C3 2.34 3 1.68 3 1 C1.68 1.33 0.36 1.66 -1 2 C-0.67 1.34 -0.34 0.68 0 0 Z " fill="#828388" transform="translate(1782,61)"/>
<path d="M0 0 C0.66 0.33 1.32 0.66 2 1 C1.67 2.65 1.34 4.3 1 6 C-1.97 5.505 -1.97 5.505 -5 5 C-4 2 -4 2 -2.0625 0.75 C-1.381875 0.5025 -0.70125 0.255 0 0 Z " fill="#5C5B70" transform="translate(1531,63)"/>
<path d="M0 0 C0.66 0 1.32 0 2 0 C2 0.66 2 1.32 2 2 C2.66 2.33 3.32 2.66 4 3 C3.34 3 2.68 3 2 3 C2 4.98 2 6.96 2 9 C2.66 9.33 3.32 9.66 4 10 C2.68 10 1.36 10 0 10 C-1.125 2.25 -1.125 2.25 0 0 Z " fill="#7A7B81" transform="translate(1850,59)"/>
<path d="M0 0 C0.66 0 1.32 0 2 0 C2 0.66 2 1.32 2 2 C2.66 2.33 3.32 2.66 4 3 C3.34 3 2.68 3 2 3 C2 4.98 2 6.96 2 9 C2.66 9.33 3.32 9.66 4 10 C2.68 10 1.36 10 0 10 C-1.125 2.25 -1.125 2.25 0 0 Z " fill="#7E7F85" transform="translate(1699,59)"/>
<path d="M0 0 C0.66 0 1.32 0 2 0 C2 0.66 2 1.32 2 2 C2.66 2.33 3.32 2.66 4 3 C3.34 3 2.68 3 2 3 C2 4.98 2 6.96 2 9 C2.66 9.33 3.32 9.66 4 10 C2.68 10 1.36 10 0 10 C-1.125 2.25 -1.125 2.25 0 0 Z " fill="#818390" transform="translate(1401,59)"/>
<path d="M0 0 C0.66 0 1.32 0 2 0 C2 0.66 2 1.32 2 2 C2.66 2.33 3.32 2.66 4 3 C3.34 3 2.68 3 2 3 C2 4.98 2 6.96 2 9 C2.66 9.33 3.32 9.66 4 10 C2.68 10 1.36 10 0 10 C-1.125 2.25 -1.125 2.25 0 0 Z " fill="#818193" transform="translate(1560,59)"/>
<path d="M0 0 C0.66 0 1.32 0 2 0 C2 0.66 2 1.32 2 2 C2.66 2.33 3.32 2.66 4 3 C3.34 3 2.68 3 2 3 C2 4.98 2 6.96 2 9 C2.66 9.33 3.32 9.66 4 10 C2.68 9.67 1.36 9.34 0 9 C-1.125 2.25 -1.125 2.25 0 0 Z " fill="#7F8189" transform="translate(1307,59)"/>
<path d="M0 0 C0.66 0 1.32 0 2 0 C2 0.66 2 1.32 2 2 C2.66 2.33 3.32 2.66 4 3 C3.34 3 2.68 3 2 3 C2 4.98 2 6.96 2 9 C2.66 9.33 3.32 9.66 4 10 C2.68 9.67 1.36 9.34 0 9 C-1.125 2.25 -1.125 2.25 0 0 Z " fill="#828390" transform="translate(1620,59)"/>
<path d="M0 0 C1.98 0 3.96 0 6 0 C4.68 2.31 3.36 4.62 2 7 C1.34 7 0.68 7 0 7 C0 4.69 0 2.38 0 0 Z " fill="#4C4B56" transform="translate(1151,255)"/>
<path d="M0 0 C0.33 0.99 0.66 1.98 1 3 C1.99 3 2.98 3 4 3 C3.67 3.99 3.34 4.98 3 6 C1.35 5.67 -0.3 5.34 -2 5 C-1.125 1.125 -1.125 1.125 0 0 Z " fill="#FAFBFB" transform="translate(154,67)"/>
<path d="M0 0 C0.99 0 1.98 0 3 0 C3 1.65 3 3.3 3 5 C1.68 5 0.36 5 -1 5 C-0.67 3.35 -0.34 1.7 0 0 Z " fill="#405C52" transform="translate(226,64)"/>
<path d="M0 0 C0.99 0 1.98 0 3 0 C3 1.65 3 3.3 3 5 C1.68 5 0.36 5 -1 5 C-0.67 3.35 -0.34 1.7 0 0 Z " fill="#2F3039" transform="translate(1832,62)"/>
<path d="M0 0 C0.99 0 1.98 0 3 0 C3 1.65 3 3.3 3 5 C1.68 5 0.36 5 -1 5 C-0.67 3.35 -0.34 1.7 0 0 Z " fill="#323647" transform="translate(1282,62)"/>
<path d="M0 0 C0.99 0.33 1.98 0.66 3 1 C2.67 2.65 2.34 4.3 2 6 C1.01 5.67 0.02 5.34 -1 5 C-0.67 3.35 -0.34 1.7 0 0 Z " fill="#21232D" transform="translate(1692,62)"/>
<path d="M0 0 C0.99 0.33 1.98 0.66 3 1 C2.67 2.65 2.34 4.3 2 6 C1.01 5.67 0.02 5.34 -1 5 C-0.67 3.35 -0.34 1.7 0 0 Z " fill="#2A2C38" transform="translate(1683,62)"/>
<path d="M0 0 C0.99 0.33 1.98 0.66 3 1 C2.67 2.65 2.34 4.3 2 6 C1.01 5.67 0.02 5.34 -1 5 C-0.67 3.35 -0.34 1.7 0 0 Z " fill="#2D2D47" transform="translate(1543,62)"/>
<path d="M0 0 C0.99 0.33 1.98 0.66 3 1 C2.67 2.65 2.34 4.3 2 6 C1.01 5.67 0.02 5.34 -1 5 C-0.67 3.35 -0.34 1.7 0 0 Z " fill="#2A2D42" transform="translate(1384,62)"/>
<path d="M0 0 C1.32 0.33 2.64 0.66 4 1 C3.34 3.31 2.68 5.62 2 8 C1.34 8 0.68 8 0 8 C0 5.36 0 2.72 0 0 Z " fill="#838394" transform="translate(1550,61)"/>
<path d="M0 0 C0.33 0 0.66 0 1 0 C1 1.98 1 3.96 1 6 C-0.65 5.67 -2.3 5.34 -4 5 C-3.67 4.01 -3.34 3.02 -3 2 C-2.01 2 -1.02 2 0 2 C0 1.34 0 0.68 0 0 Z " fill="#646675" transform="translate(1371,63)"/>
<path d="M0 0 C1.5 1.375 1.5 1.375 3 3 C3 3.66 3 4.32 3 5 C1.68 5 0.36 5 -1 5 C-1.33 5.99 -1.66 6.98 -2 8 C-2.33 7.34 -2.66 6.68 -3 6 C-2.06553465 3.96855359 -1.06775224 1.96466413 0 0 Z " fill="#BEC05F" transform="translate(47,54)"/>
<path d="M0 0 C1.65 0 3.3 0 5 0 C5 1.32 5 2.64 5 4 C3.35 3.67 1.7 3.34 0 3 C0 2.01 0 1.02 0 0 Z " fill="#DADEDD" transform="translate(236,55)"/>
<path d="M0 0 C0.66 0.33 1.32 0.66 2 1 C1.67 2.98 1.34 4.96 1 7 C0.01 7.33 -0.98 7.66 -2 8 C-2.125 5.125 -2.125 5.125 -2 2 C-1.34 1.34 -0.68 0.68 0 0 Z " fill="#3F564A" transform="translate(384,68)"/>
<path d="M0 0 C0.99 0 1.98 0 3 0 C3 1.98 3 3.96 3 6 C2.01 6 1.02 6 0 6 C0 4.02 0 2.04 0 0 Z " fill="#30314A" transform="translate(1606,62)"/>
<path d="M0 0 C0.99 0.33 1.98 0.66 3 1 C2.625 3.4375 2.625 3.4375 2 6 C1.01 6.495 1.01 6.495 0 7 C-1.125 2.25 -1.125 2.25 0 0 Z " fill="#707176" transform="translate(1812,58)"/>
<path d="M0 0 C0.66 0.33 1.32 0.66 2 1 C0.625 2.5 0.625 2.5 -1 4 C-1.66 4 -2.32 4 -3 4 C-3 5.98 -3 7.96 -3 10 C-3.33 10 -3.66 10 -4 10 C-4.25 6.6875 -4.25 6.6875 -4 3 C-2 1.0625 -2 1.0625 0 0 Z " fill="#BABBBE" transform="translate(1187,465)"/>
<path d="M0 0 C0.66 0 1.32 0 2 0 C2.33 1.98 2.66 3.96 3 6 C2.01 6 1.02 6 0 6 C0 4.02 0 2.04 0 0 Z " fill="#1E2E67" transform="translate(50,60)"/>
</svg>
